PathFileType	4	(X/Y/Z)	T1_P2_NoVision_NoMovement_4_0-734.trc
DataRate	CameraRate	NumFrames	NumMarkers	Units	OrigDataRate	OrigDataStartFrame	OrigNumFrames
60	60	4	27	m	60	458	734
Frame#	Time	RHip			RKnee			RAnkle			RBigToe			RSmallToe			RHeel			LHip			LKnee			LAnkle			LBigToe			LSmallToe			LHeel			Neck			Head			Nose			RShoulder			RElbow			RWrist			RThumb			RIndex			RPinky			LShoulder			LElbow			LWrist			LThumb			LIndex			LPinky		
		X1	Y1	Z1	X2	Y2	Z2	X3	Y3	Z3	X4	Y4	Z4	X5	Y5	Z5	X6	Y6	Z6	X7	Y7	Z7	X8	Y8	Z8	X9	Y9	Z9	X10	Y10	Z10	X11	Y11	Z11	X12	Y12	Z12	X13	Y13	Z13	X14	Y14	Z14	X15	Y15	Z15	X16	Y16	Z16	X17	Y17	Z17	X18	Y18	Z18	X19	Y19	Z19	X20	Y20	Z20	X21	Y21	Z21	X22	Y22	Z22	X23	Y23	Z23	X24	Y24	Z24	X25	Y25	Z25	X26	Y26	Z26	X27	Y27	Z27
459	7.65	465.3705093657727	3687.849369830413	578.9351363552055	878.4031190559934	3710.422940844555	585.0898424273477	1243.1925398464339	3727.8710433516053	615.2753007674743	1315.1414178628104	3612.953367048655	548.764404715027	1316.8412321198587	3691.91854080492	526.7394020590114	1276.1598556938043	3714.570831029166	625.4640744188792	462.23979441533214	3530.3676442064384	742.6477522605975	857.6077882781224	3538.5838690856917	737.262405823628	1214.437981183583	3612.5993891209555	734.5591341393302	1304.7987753255622	3540.3914898650123	690.0331156815548	1265.9606498019364	3457.0281590491854	707.3290304087252	1246.6223048685122	3613.336550996028	712.8724751359529	-125.88267770291394	3605.278595927614	699.8668550241518	-390.21151494085797	3532.370829237037	649.4368638652282	-244.82621309982488	3466.5384238881156	615.462888679835	-49.422562885208364	3671.4686909866773	554.4838563023013	195.566228695685	3760.335294487743	517.2931686766814	346.1934787461219	3497.916323086946	526.5827126095892	409.1503057078708	3517.019362533557	613.0259339157343	426.7614436317302	3507.8099201879804	623.4608908981305	455.98810035717236	3504.259145803564	615.1431895184278	-31.435442584610954	3563.90261376424	857.885249481144	208.96092636109466	3421.869211623386	810.2839703287399	357.98155271261686	3433.1941278644626	630.8935117352592	411.47698600056026	3451.833254174258	537.7706116756807	433.9569947040408	3503.3382196654343	568.9469449796849	452.0262982913796	3456.4209139947516	600.7980354964899
460	7.666666666666667	465.3562915211503	3687.933794776921	578.9483745225077	884.6085680801564	3715.183147107417	586.5765244578389	1242.8995794699874	3727.692357366831	614.9002867544898	1312.82208249914	3617.8051258568057	551.3786133804983	1311.0983337368014	3690.3468623954245	525.129457288197	1275.989321328117	3714.170296140307	624.976802208639	462.17735550381485	3530.4461720060963	742.6695746234011	857.6709801439644	3538.6541080098496	737.3128341599328	1214.2770219916374	3612.4204973243986	734.4362359901627	1304.842116961237	3540.014067570045	689.9948313069228	1265.817912536733	3456.7788397117247	707.2996237751798	1246.4819141259159	3613.1188103394175	712.6815234781939	-125.97754048029994	3605.3416110145545	699.9758756548196	-390.2104856187721	3532.353021738924	649.4541601362475	-244.9098181069972	3466.5044091788377	615.4692419075318	-49.49966700196464	3671.701140622058	554.6430536813375	195.5849975248779	3760.302040295737	517.3021507267151	346.2228409744822	3498.0423392450593	526.5644289396153	413.80283826716834	3521.3522855997094	614.6031494276594	427.17431267377833	3508.4129350415565	623.8792672561904	461.2660463312777	3506.24764245584	616.2672784687405	-31.470473939204926	3563.91033540235	857.8742304700578	208.93904949595083	3421.8659229945233	810.2469024632505	357.93765788069203	3433.063751923269	630.8222396973786	411.4225027516336	3451.5326009941873	537.361474362064	431.138006869795	3488.9301683795125	555.8434517096883	456.637853474339	3457.8804097194534	601.6887539182579
461	7.683333333333334	465.32895840827433	3687.945045029444	578.9126840130043	878.1529617214248	3710.891350662996	585.3433498406811	1242.833527740704	3727.410546479451	614.9520031597583	1313.9009315938958	3617.7639851449826	556.7391857629576	1316.6607541232645	3691.576762988892	526.6797904220157	1275.9563210413655	3714.106257730919	625.2067118315355	462.160697354459	3530.5225871890993	742.6956778981408	857.588115653875	3538.8167128432933	737.2409343038049	1214.6840051859283	3612.5385999649097	734.5352638180594	1304.9556686652468	3540.3314370643666	690.1405067614006	1265.967831304454	3457.012290190613	707.4422995887998	1252.7830386481094	3614.7051178342367	714.2341821594525	-125.88678933441437	3605.2654457265166	699.823452289432	-385.29115778710866	3528.330403534612	647.3643896246806	-244.81886785488285	3466.481559033237	615.4173508149653	-49.47611929573779	3671.7667409590263	554.5829862019848	195.4900177237396	3760.4274117796194	517.2559377567853	346.18455795821575	3498.0535229612774	526.4895339461146	413.6226847695115	3521.0857901392255	614.4305446811023	427.1477970999807	3508.1702428933254	623.6956761601435	461.3647534624945	3506.407773991331	616.2462045230778	-35.39360539928681	3567.750589676311	860.0076049568929	208.87676736364818	3421.7002281424907	810.2371619489055	357.92592687222	3433.1826514073637	630.9058280078924	408.3986743405058	3436.4102867713887	523.8266785368703	430.776902035143	3488.0803275667795	555.1362860014742	453.79935341012754	3444.883029123682	589.9276849092157
462	7.7	469.49528571889977	3682.888585314856	576.2934094216082	873.2994493636055	3708.6246145946316	583.8144732054099	1242.508559578389	3726.7160642302374	614.6156251859898	1310.1723295395407	3611.2812051116794	547.188854151604	1303.4081747662185	3668.7361787991254	520.1224949122947	1278.1561619042573	3707.8735266951767	621.6633070632714	462.2583629366071	3530.4757824993912	742.7535191816949	857.641274844336	3538.5423041150043	737.1700737985453	1220.9086580553992	3616.3022973561415	735.2998489192594	1304.7937325232926	3540.142690455394	689.9876829091055	1265.9919158173975	3457.0083788493143	707.3985714225606	1255.3845663028574	3611.2941907843024	710.3148971467617	-125.97794361847347	3605.285996730405	699.9527164904607	-385.31715555543974	3528.273460787784	647.2993929139404	-244.85765474399847	3466.328348766919	615.3385518816636	-49.503317967176386	3671.714543421501	554.6165911917398	195.48509040487227	3760.3323561680027	517.2259069735314	346.2254418477809	3498.3486000068974	526.60780879439	416.34220630595456	3540.6338152495377	619.5997690591515	426.013143060107	3532.000211723125	631.0176776321179	459.3474157252613	3523.8015967168067	620.4764434201979	-31.42346175987557	3564.0448818679642	857.9065823539222	208.98837529225273	3421.736617182613	810.2077674041861	357.9916254637556	3433.3411808947276	630.8436678977276	411.5469292301415	3453.71937045584	534.0302992375694	430.71496802390936	3488.8920445894955	551.3078987960469	456.7530774493198	3458.034928865302	601.6896402101623
